<?xml version="1.0" encoding="UTF-8"?>
<!DOCTYPE svg PUBLIC "-//W3C//DTD SVG 1.1//EN" "http://www.w3.org/Graphics/SVG/1.1/DTD/svg11.dtd">
<svg xmlns="http://www.w3.org/2000/svg" version="1.1" width="879px" height="879px" style="shape-rendering:geometricPrecision; text-rendering:geometricPrecision; image-rendering:optimizeQuality; fill-rule:evenodd; clip-rule:evenodd" xmlns:xlink="http://www.w3.org/1999/xlink">
<g><path style="opacity:0.588" fill="#6f7173" d="M 749.5,12.5 C 542.5,11.1667 335.5,11.1667 128.5,12.5C 231.665,11.1667 335.165,10.5 439,10.5C 542.835,10.5 646.335,11.1667 749.5,12.5 Z"/></g>
<g><path style="opacity:1" fill="#191b1b" d="M 749.5,12.5 C 750.434,13.7725 751.101,15.2725 751.5,17C 743.976,22.5157 738.809,29.6823 736,38.5C 735.921,202.502 736.588,366.502 738,530.5C 738.838,539.007 742.672,545.84 749.5,551C 754.744,553.685 760.077,555.852 765.5,557.5C 766.167,558.167 766.833,558.833 767.5,559.5C 658.148,627.267 548.648,694.933 439,762.5C 435.349,760.267 431.849,757.934 428.5,755.5C 428.027,754.094 427.027,753.427 425.5,753.5C 421.827,752 418.494,750 415.5,747.5C 415.027,746.094 414.027,745.427 412.5,745.5C 408.827,744 405.494,742 402.5,739.5C 402.027,738.094 401.027,737.427 399.5,737.5C 393.158,734.332 387.158,730.665 381.5,726.5C 381.027,725.094 380.027,724.427 378.5,724.5C 374.827,723 371.494,721 368.5,718.5C 368.027,717.094 367.027,716.427 365.5,716.5C 361.827,715 358.494,713 355.5,710.5C 355.027,709.094 354.027,708.427 352.5,708.5C 346.158,705.332 340.158,701.665 334.5,697.5C 334.027,696.094 333.027,695.427 331.5,695.5C 327.827,694 324.494,692 321.5,689.5C 321.027,688.094 320.027,687.427 318.5,687.5C 314.827,686 311.494,684 308.5,681.5C 308.027,680.094 307.027,679.427 305.5,679.5C 299.158,676.332 293.158,672.665 287.5,668.5C 287.027,667.094 286.027,666.427 284.5,666.5C 280.827,665 277.494,663 274.5,660.5C 274.027,659.094 273.027,658.427 271.5,658.5C 267.827,657 264.494,655 261.5,652.5C 261.027,651.094 260.027,650.427 258.5,650.5C 252.158,647.332 246.158,643.665 240.5,639.5C 240.027,638.094 239.027,637.427 237.5,637.5C 233.827,636 230.494,634 227.5,631.5C 227.027,630.094 226.027,629.427 224.5,629.5C 220.827,628 217.494,626 214.5,623.5C 214.027,622.094 213.027,621.427 211.5,621.5C 200.898,615.556 190.564,609.222 180.5,602.5C 180.027,601.094 179.027,600.427 177.5,600.5C 173.827,599 170.494,597 167.5,594.5C 167.027,593.094 166.027,592.427 164.5,592.5C 153.898,586.556 143.564,580.222 133.5,573.5C 133.027,572.094 132.027,571.427 130.5,571.5C 126.827,570 123.494,568 120.5,565.5C 120.027,564.094 119.027,563.427 117.5,563.5C 114.517,562.342 111.85,560.675 109.5,558.5C 115.913,556.362 122.247,554.029 128.5,551.5C 131.167,550.833 132.833,549.167 133.5,546.5C 137.114,541.839 139.281,536.506 140,530.5C 141.412,366.502 142.079,202.502 142,38.5C 141.101,34.462 139.434,30.7954 137,27.5C 133.962,24.6306 131.129,21.6306 128.5,18.5C 127.89,17.609 127.557,16.609 127.5,15.5C 127.263,14.209 127.596,13.209 128.5,12.5C 335.5,11.1667 542.5,11.1667 749.5,12.5 Z"/></g>
<g><path style="opacity:0.353" fill="#bbbcbd" d="M 127.5,15.5 C 127.557,16.609 127.89,17.609 128.5,18.5C 126.448,17.9473 126.115,16.9473 127.5,15.5 Z"/></g>
<g><path style="opacity:1" fill="#f5c301" d="M 138.5,18.5 C 338.666,17.3337 539,17.1671 739.5,18C 734.083,22.6658 730.583,28.4991 729,35.5C 728.899,200.167 729.232,364.833 730,529.5C 731.351,544.053 738.518,554.553 751.5,561C 647.25,625.041 543.083,689.208 439,753.5C 334.917,689.208 230.75,625.041 126.5,561C 139.482,554.553 146.649,544.053 148,529.5C 148.787,364.833 149.12,200.167 149,35.5C 147.509,28.504 144.009,22.8374 138.5,18.5 Z"/></g>
<g><path style="opacity:1" fill="#6f956a" d="M 622.5,599.5 C 626.048,597.559 629.714,595.893 633.5,594.5C 641.55,591.618 648.383,586.951 654,580.5C 663.187,568.134 672.853,556.134 683,544.5C 686.216,538.736 688.883,532.736 691,526.5C 691.916,518.003 693.582,509.67 696,501.5C 698.22,496.616 701.22,492.282 705,488.5C 702.486,493.205 700.153,498.205 698,503.5C 696.813,512.783 696.147,522.117 696,531.5C 694.453,538.597 691.786,545.264 688,551.5C 685.553,562.056 681.22,571.723 675,580.5C 659.643,596.935 641.143,608.435 619.5,615C 602.24,619.052 584.907,622.719 567.5,626C 559.599,627.8 551.933,630.3 544.5,633.5C 541.645,636.52 538.979,639.687 536.5,643C 544.447,642.434 552.447,642.434 560.5,643C 562.967,643.796 564.3,645.463 564.5,648C 560.994,656.178 555.327,662.511 547.5,667C 532.017,674.572 517.017,682.906 502.5,692C 495.842,697.324 490.675,703.824 487,711.5C 486.297,706.273 487.63,701.606 491,697.5C 495.575,692.254 500.742,687.754 506.5,684C 522.313,675.679 536.813,665.513 550,653.5C 550.448,651.591 549.615,650.424 547.5,650C 545.167,649.333 542.833,649.333 540.5,650C 525.293,658.959 508.96,664.959 491.5,668C 475.474,677.458 458.474,684.791 440.5,690C 452.032,694.589 462.365,700.922 471.5,709C 470.333,713.167 469.167,717.333 468,721.5C 457.62,709.128 444.954,699.795 430,693.5C 418.716,697.972 408.383,703.972 399,711.5C 393.555,707.726 388.389,703.56 383.5,699C 397.094,698.851 410.094,696.018 422.5,690.5C 409.703,685.178 396.703,680.345 383.5,676C 378.588,673.628 373.755,671.128 369,668.5C 353.857,678.463 337.69,680.63 320.5,675C 325.167,672.333 329.833,669.667 334.5,667C 320.492,667.997 308.159,663.997 297.5,655C 303.143,654.136 308.81,653.469 314.5,653C 302.7,649.033 294.7,641.2 290.5,629.5C 293.833,628.833 297.167,628.167 300.5,627.5C 297.567,622.535 293.234,619.868 287.5,619.5C 274.175,623.134 260.841,623.301 247.5,620C 242.338,618.166 237.672,615.499 233.5,612C 238.104,610.939 242.771,610.273 247.5,610C 236.163,608.248 226.33,603.415 218,595.5C 217.626,594.584 217.126,593.75 216.5,593C 222.84,592.399 229.174,591.733 235.5,591C 231.007,587.166 228.174,582.333 227,576.5C 216.943,569.755 206.443,563.921 195.5,559C 190.167,555.667 184.833,552.333 179.5,549C 178.949,547.602 178.616,546.268 178.5,545C 157.508,534.028 152.675,518.195 164,497.5C 170.89,490.035 179.39,485.702 189.5,484.5C 189.451,481.901 188.451,479.734 186.5,478C 169.991,471.667 160.325,459.833 157.5,442.5C 157.645,439.245 158.979,439.079 161.5,442C 162.944,442.781 164.277,442.614 165.5,441.5C 163.079,437.66 160.912,433.66 159,429.5C 156.815,418.408 159.315,416.575 166.5,424C 167.416,424.374 168.25,424.874 169,425.5C 166.739,418.942 164.406,412.276 162,405.5C 160.173,399.449 160.173,393.449 162,387.5C 164.753,392.341 168.42,396.341 173,399.5C 175.435,392.333 176.435,384.999 176,377.5C 167.836,371.503 163.002,363.503 161.5,353.5C 163.135,352.319 164.802,352.319 166.5,353.5C 166.833,352.833 167.167,352.167 167.5,351.5C 165.3,344.443 166.467,338.109 171,332.5C 172.333,334.5 173.667,336.5 175,338.5C 175.333,336.167 175.667,333.833 176,331.5C 178.748,326.334 181.748,321.334 185,316.5C 185.749,320.251 186.749,323.918 188,327.5C 190.229,317.168 187.729,308.001 180.5,300C 176.901,298.184 173.234,296.517 169.5,295C 170.451,294.282 170.617,293.449 170,292.5C 152.399,274.015 153.566,256.848 173.5,241C 177.611,239.109 181.944,238.109 186.5,238C 188.35,234.369 188.85,230.536 188,226.5C 181.956,222.124 176.956,216.79 173,210.5C 171.648,207.28 170.814,203.947 170.5,200.5C 171.93,200.421 173.264,200.754 174.5,201.5C 174.833,200.667 175.167,199.833 175.5,199C 173.872,192.678 174.205,186.512 176.5,180.5C 177.274,179.289 178.107,179.289 179,180.5C 180.08,182.996 181.414,185.33 183,187.5C 184.043,178.414 187.543,170.414 193.5,163.5C 194.328,167.796 194.828,172.129 195,176.5C 199.486,170.49 199.653,164.323 195.5,158C 182.627,157.645 171.794,152.812 163,143.5C 161.558,140.95 160.392,138.284 159.5,135.5C 162.212,134.772 164.879,133.939 167.5,133C 161.822,128.483 159.322,122.649 160,115.5C 163,117.167 166,118.833 169,120.5C 168.028,115.929 167.028,111.263 166,106.5C 165.139,100.415 165.473,94.4149 167,88.5C 172.593,94.0964 178.76,98.9297 185.5,103C 187.123,105.08 188.623,107.246 190,109.5C 190.517,106.08 191.35,102.747 192.5,99.5C 193.99,101.126 195.49,102.792 197,104.5C 199.767,101.08 201.6,97.2468 202.5,93C 202.592,90.1861 201.592,87.8527 199.5,86C 190.376,82.6038 181.376,78.9372 172.5,75C 160.991,63.4239 159.491,50.5905 168,36.5C 180.028,22.3128 194.195,19.8128 210.5,29C 220.023,36.3076 223.19,45.8076 220,57.5C 219.422,60.9033 218.255,64.0699 216.5,67C 217.167,67.3333 217.833,67.6667 218.5,68C 215.438,74.6257 211.271,80.4591 206,85.5C 205.333,87.5 205.333,89.5 206,91.5C 216.494,80.8402 228.327,72.0069 241.5,65C 246.431,52.7265 253.764,42.0599 263.5,33C 267.144,30.3441 271.144,28.5107 275.5,27.5C 275.201,29.604 275.534,31.604 276.5,33.5C 285.542,27.6662 295.209,26.1662 305.5,29C 302.37,31.128 299.537,33.628 297,36.5C 296.312,37.3317 296.479,37.9984 297.5,38.5C 301.636,36.5526 305.97,36.0526 310.5,37C 317.322,38.0521 323.989,39.7188 330.5,42C 325.867,43.9917 321.201,45.9917 316.5,48C 327.695,52.6992 339.362,54.6992 351.5,54C 362.313,36.4283 377.979,28.0949 398.5,29C 396.381,31.2185 396.048,33.7185 397.5,36.5C 405.42,33.0281 413.42,32.6947 421.5,35.5C 418.346,38.2433 415.012,40.7433 411.5,43C 425.044,42.4238 438.044,44.7571 450.5,50C 450.957,50.414 451.291,50.914 451.5,51.5C 443.383,55.058 435.383,58.8913 427.5,63C 424.043,64.7435 420.377,65.7435 416.5,66C 420.71,67.6228 424.71,69.6228 428.5,72C 418.115,74.5992 407.782,74.9326 397.5,73C 399.539,75.3745 401.872,77.3745 404.5,79C 395.321,81.6955 386.654,80.5289 378.5,75.5C 377.963,80.4354 375.63,81.6021 371.5,79C 367.835,77.503 364.502,75.503 361.5,73C 358.007,69.0152 355.007,64.6819 352.5,60C 345.632,57.6898 338.632,56.3565 331.5,56C 338.185,60.8343 344.518,65.1676 350.5,69C 345.068,71.2744 339.401,72.4411 333.5,72.5C 325.446,71.7046 317.446,70.8713 309.5,70C 312.5,72.3333 315.5,74.6667 318.5,77C 309.9,81.6955 301.4,81.5288 293,76.5C 292.254,79.7894 293.42,82.2894 296.5,84C 276.525,89.6688 259.525,85.0021 245.5,70C 241.619,70.4265 237.953,71.7599 234.5,74C 220.573,83.2592 209.407,95.0925 201,109.5C 200.993,112.479 201.327,115.479 202,118.5C 204.39,111.868 206.724,111.868 209,118.5C 209.172,123.202 209.672,127.868 210.5,132.5C 211.736,131.754 213.07,131.421 214.5,131.5C 213.665,141.516 209.165,149.516 201,155.5C 200.304,159.905 200.637,164.239 202,168.5C 208.142,164.026 213.809,159.693 219,155.5C 219.729,160.669 219.062,165.669 217,170.5C 214.656,175.498 212.656,180.498 211,185.5C 213.333,183.833 215.667,182.167 218,180.5C 219.393,187.651 217.56,193.817 212.5,199C 214.92,199.687 217.087,199.187 219,197.5C 217.501,213.346 209.001,223.513 193.5,228C 190.971,230.642 189.971,233.808 190.5,237.5C 206.848,239.009 217.348,247.676 222,263.5C 223.348,271.018 222.014,278.018 218,284.5C 210.302,291.864 202.969,299.53 196,307.5C 193.933,311.639 193.266,315.973 194,320.5C 200.543,316.558 206.543,311.892 212,306.5C 214.653,318.063 213.486,329.23 208.5,340C 212.387,338.643 216.22,336.81 220,334.5C 220.652,337.594 220.318,340.594 219,343.5C 217.03,346.968 214.864,350.301 212.5,353.5C 212.709,354.086 213.043,354.586 213.5,355C 215.473,355.495 217.473,355.662 219.5,355.5C 218.047,362.457 214.381,367.957 208.5,372C 199.826,377.005 190.493,380.171 180.5,381.5C 178.074,388.317 176.908,395.317 177,402.5C 182.109,405.61 185.776,409.943 188,415.5C 188.632,410.399 189.632,405.399 191,400.5C 197.757,409.011 201.424,418.678 202,429.5C 204.723,426.443 207.056,423.11 209,419.5C 213.23,428.348 213.396,437.348 209.5,446.5C 211.741,446.498 214.074,446.832 216.5,447.5C 215.253,453.993 212.42,459.66 208,464.5C 203,468.5 198,472.5 193,476.5C 192.502,479.482 192.335,482.482 192.5,485.5C 207.177,487.015 217.01,494.682 222,508.5C 223.94,518.344 221.606,527.011 215,534.5C 215.381,542.582 213.881,550.248 210.5,557.5C 211.253,559.753 212.586,561.587 214.5,563C 218.088,565.377 221.588,567.877 225,570.5C 224.446,564.829 224.613,559.163 225.5,553.5C 237.169,556.084 246.669,562.084 254,571.5C 254.482,566.712 254.148,562.045 253,557.5C 255.941,558.812 258.774,560.312 261.5,562C 264.699,565.566 267.533,569.4 270,573.5C 271.174,569.954 271.84,566.287 272,562.5C 283.718,569.593 290.718,579.926 293,593.5C 293.333,600.833 293.667,608.167 294,615.5C 298.03,619.44 302.197,623.274 306.5,627C 325.939,630.626 326.939,628.626 309.5,621C 322.273,618.351 333.94,620.851 344.5,628.5C 345.493,624.269 344.493,620.436 341.5,617C 360.849,620.331 374.349,631.164 382,649.5C 383.136,653.243 384.47,656.91 386,660.5C 392.135,665.634 397.969,671.134 403.5,677C 412.242,679.803 420.908,682.803 429.5,686C 447.547,683.983 464.214,677.983 479.5,668C 520.487,631.334 563.487,597.334 608.5,566C 613.796,559.917 617.963,553.084 621,545.5C 624.642,531.651 627.642,517.651 630,503.5C 630.792,499.921 632.125,496.588 634,493.5C 633.776,507.808 633.442,522.141 633,536.5C 631.842,550.144 626.842,562.144 618,572.5C 613.5,577 609,581.5 604.5,586C 588.836,596.501 572.836,606.501 556.5,616C 544.526,626.484 546.526,628.484 562.5,622C 576.265,615.412 590.598,610.412 605.5,607C 611.193,604.485 616.859,601.985 622.5,599.5 Z"/></g>
<g><path style="opacity:1" fill="#fdfdfd" d="M 188.5,26.5 C 201.461,25.7293 210.961,31.0626 217,42.5C 218.709,51.3524 217.209,59.5191 212.5,67C 206.49,67.3697 201.157,69.3697 196.5,73C 181.972,79.1649 171.805,74.6649 166,59.5C 164.759,47.977 168.592,38.477 177.5,31C 181.213,29.3371 184.88,27.8371 188.5,26.5 Z"/></g>
<g><path style="opacity:1" fill="#44361d" d="M 702.5,155.5 C 701.5,154.833 700.5,154.167 699.5,153.5C 692.407,146.653 687.907,138.32 686,128.5C 685.333,120.5 685.333,112.5 686,104.5C 688.856,92.5984 692.522,80.9317 697,69.5C 699.322,60.9958 698.989,52.6625 696,44.5C 692.481,40.324 687.981,38.1574 682.5,38C 681.167,36 681.167,34 682.5,32C 688.372,31.0688 693.205,32.9021 697,37.5C 699.254,41.0066 701.254,44.6733 703,48.5C 703.313,59.8856 702.98,71.2189 702,82.5C 706,87.8333 710,93.1667 714,98.5C 720.596,110.114 721.263,122.114 716,134.5C 711.988,141.868 707.488,148.868 702.5,155.5 Z"/></g>
<g><path style="opacity:1" fill="#45371d" d="M 667.5,58.5 C 665.973,58.427 664.973,59.0937 664.5,60.5C 651.89,69.3169 637.89,72.4835 622.5,70C 619.007,69.0581 615.674,67.7248 612.5,66C 605.833,61.3333 599.167,56.6667 592.5,52C 587.367,49.844 582.033,48.5106 576.5,48C 566.833,47.6667 557.167,47.3333 547.5,47C 546.663,45.9887 546.33,44.8221 546.5,43.5C 562.503,43.6666 578.503,43.4999 594.5,43C 601.879,40.8739 609.212,38.5406 616.5,36C 628.044,33.1174 639.044,34.4507 649.5,40C 655.842,45.8685 661.842,52.0352 667.5,58.5 Z"/></g>
<g><path style="opacity:1" fill="#f3c101" d="M 621.5,39.5 C 631.853,37.8059 641.187,39.9725 649.5,46C 653.393,49.39 656.727,53.2233 659.5,57.5C 654.211,61.6533 648.211,64.1533 641.5,65C 630.253,67.21 619.92,65.21 610.5,59C 606.127,55.4893 601.794,51.9893 597.5,48.5C 605.359,44.8945 613.359,41.8945 621.5,39.5 Z"/></g>
<g><path style="opacity:1" fill="#f3f6f3" d="M 373.5,41.5 C 374.239,41.369 374.906,41.5357 375.5,42C 371.782,45.5349 370.782,49.7015 372.5,54.5C 377.187,55.7777 381.854,55.6111 386.5,54C 387.579,50.1062 389.746,46.9396 393,44.5C 392.435,47.404 391.935,50.404 391.5,53.5C 401.838,52.7481 412.171,52.2481 422.5,52C 412.248,54.9494 401.914,57.4494 391.5,59.5C 392.93,62.4327 394.93,64.9327 397.5,67C 392.859,66.3874 389.192,64.054 386.5,60C 381.798,59.1717 377.131,59.3384 372.5,60.5C 373.711,62.4219 375.044,64.2552 376.5,66C 372.462,65.0064 369.128,62.6731 366.5,59C 362.612,57.6216 358.612,56.6216 354.5,56C 358.297,54.5761 362.297,54.0761 366.5,54.5C 367.553,49.4545 369.887,45.1212 373.5,41.5 Z"/></g>
<g><path style="opacity:1" fill="#eef3ee" d="M 270.5,44.5 C 271.239,44.369 271.906,44.5357 272.5,45C 269.462,47.7026 266.795,50.7026 264.5,54C 271.322,54.9111 277.322,53.2445 282.5,49C 286.609,46.6281 290.942,45.2948 295.5,45C 290.876,46.3105 286.876,48.6438 283.5,52C 296.897,52.7461 309.897,55.4127 322.5,60C 310.916,58.2937 299.249,56.7937 287.5,55.5C 286.167,55.8333 284.833,56.1667 283.5,56.5C 286.345,59.8442 289.345,63.0109 292.5,66C 292.167,66.1667 291.833,66.3333 291.5,66.5C 287.34,63.8355 283.673,60.6688 280.5,57C 275.12,56.4042 269.787,56.7375 264.5,58C 264.839,63.106 267.172,67.4393 271.5,71C 266.685,68.531 262.685,64.8644 259.5,60C 248.061,59.3203 248.395,57.6536 260.5,55C 263.363,50.9723 266.696,47.4723 270.5,44.5 Z"/></g>
<g><path style="opacity:1" fill="#27210f" d="M 613.5,52.5 C 613.56,51.9569 613.893,51.6236 614.5,51.5C 624.656,56.4943 635.323,57.8276 646.5,55.5C 647.737,55.5565 648.737,56.0565 649.5,57C 636.605,62.7385 624.605,61.2385 613.5,52.5 Z"/></g>
<g><path style="opacity:1" fill="#45371d" d="M 553.5,73.5 C 553.443,74.609 553.11,75.609 552.5,76.5C 547.661,80.5008 542.661,84.3341 537.5,88C 527.094,93.0069 516.427,93.6736 505.5,90C 494.167,84.6667 482.833,79.3333 471.5,74C 462.318,73.2978 453.151,73.4644 444,74.5C 441.109,74.7404 438.609,73.9071 436.5,72C 437.716,70.2602 439.382,69.2602 441.5,69C 451.167,68.6667 460.833,68.3333 470.5,68C 482.966,63.1017 495.632,58.7683 508.5,55C 519.041,53.4691 529.041,55.1358 538.5,60C 543.695,64.3656 548.695,68.8656 553.5,73.5 Z"/></g>
<g><path style="opacity:1" fill="#241e17" d="M 667.5,58.5 C 671.907,62.3728 674.074,67.3728 674,73.5C 673.605,88.4893 673.605,103.489 674,118.5C 675.947,127.393 679.28,135.726 684,143.5C 688.389,148.889 692.389,154.556 696,160.5C 697.262,158.216 698.428,155.882 699.5,153.5C 700.5,154.167 701.5,154.833 702.5,155.5C 699.699,170.665 698.199,185.999 698,201.5C 694.84,217.488 686.84,230.488 674,240.5C 670.803,248.422 667.803,256.422 665,264.5C 662.532,280.424 666.198,294.757 676,307.5C 680.508,313.197 685.008,318.864 689.5,324.5C 689.56,325.043 689.893,325.376 690.5,325.5C 691.325,321.878 691.825,318.211 692,314.5C 692.964,318.005 694.464,318.338 696.5,315.5C 696.227,326.588 697.06,337.588 699,348.5C 699.667,359.167 699.667,369.833 699,380.5C 696.649,396.543 689.149,409.543 676.5,419.5C 676.167,420.5 675.833,421.5 675.5,422.5C 676.355,427.484 677.022,432.484 677.5,437.5C 678.226,441.26 676.893,443.927 673.5,445.5C 671.124,431.202 669.124,416.869 667.5,402.5C 668.458,402.953 669.292,403.619 670,404.5C 670.671,403.748 671.504,403.414 672.5,403.5C 672.351,406.607 672.851,409.607 674,412.5C 688.548,398.706 695.381,381.706 694.5,361.5C 694.511,355.12 694.011,348.787 693,342.5C 690.584,337.999 687.917,333.666 685,329.5C 673.792,317.96 665.459,304.626 660,289.5C 656.185,272.392 658.851,256.392 668,241.5C 669.562,237.986 670.395,234.319 670.5,230.5C 671.319,227.695 671.819,224.695 672,221.5C 672.417,220.244 673.25,219.577 674.5,219.5C 675.196,223.452 675.696,227.452 676,231.5C 691.751,214.186 697.751,193.853 694,170.5C 689.747,162.321 684.747,154.654 679,147.5C 674.821,140.296 671.821,132.629 670,124.5C 669.5,112.505 669.333,100.505 669.5,88.5C 659.091,85.2725 648.424,83.1058 637.5,82C 609.085,80.4996 580.752,78.6663 552.5,76.5C 553.11,75.609 553.443,74.609 553.5,73.5C 558.149,74.065 562.816,74.565 567.5,75C 588.833,75.3333 610.167,75.6667 631.5,76C 644.568,76.6768 657.235,79.1768 669.5,83.5C 671.926,74.7755 670.259,67.1089 664.5,60.5C 664.973,59.0937 665.973,58.427 667.5,58.5 Z"/></g>
<g><path style="opacity:1" fill="#f1bf01" d="M 508.5,59.5 C 523.261,57.6397 535.761,61.9731 546,72.5C 546.667,73.5 546.667,74.5 546,75.5C 533.695,87.4497 519.528,90.2831 503.5,84C 495.009,79.9218 486.676,75.5884 478.5,71C 488.303,66.4578 498.303,62.6245 508.5,59.5 Z"/></g>
<g><path style="opacity:1" fill="#17150c" d="M 508.5,67.5 C 518.299,66.8661 527.299,69.1994 535.5,74.5C 534.833,74.8333 534.167,75.1667 533.5,75.5C 522.883,70.8949 511.883,69.3949 500.5,71C 503.158,69.522 505.825,68.3554 508.5,67.5 Z"/></g>
<g><path style="opacity:1" fill="#f0bf01" d="M 696.5,85.5 C 703.659,92.4984 709.492,100.498 714,109.5C 716.122,124.299 711.956,136.966 701.5,147.5C 694.91,140.935 691.077,132.935 690,123.5C 689.269,110.325 691.435,97.6587 696.5,85.5 Z"/></g>
<g><path style="opacity:1" fill="#0d0c0c" d="M 237.5,97.5 C 369.833,97.5 502.167,97.5 634.5,97.5C 634.5,212.5 634.5,327.5 634.5,442.5C 633.894,479.026 622.061,511.36 599,539.5C 567.977,573.81 530.477,598.643 486.5,614C 469.875,619.864 453.042,625.031 436,629.5C 394.652,619.945 356.152,603.778 320.5,581C 293.861,563.362 272.361,540.862 256,513.5C 247.332,497.163 241.665,479.829 239,461.5C 237.529,340.18 237.029,218.847 237.5,97.5 Z"/></g>
<g><path style="opacity:1" fill="#584808" d="M 237.5,97.5 C 369.999,96.5004 502.666,96.1671 635.5,96.5C 635.833,212.001 635.5,327.335 634.5,442.5C 634.5,327.5 634.5,212.5 634.5,97.5C 502.167,97.5 369.833,97.5 237.5,97.5 Z"/></g>
<g><path style="opacity:1" fill="#d3241c" d="M 244.5,104.5 C 372.167,104.5 499.833,104.5 627.5,104.5C 627.5,218.167 627.5,331.833 627.5,445.5C 626.188,482.448 613.021,514.448 588,541.5C 558.017,571.592 522.85,593.759 482.5,608C 468.397,613.109 454.063,617.442 439.5,621C 387.51,611.789 341.176,590.455 300.5,557C 268.492,529.822 249.992,495.322 245,453.5C 244.5,337.167 244.333,220.834 244.5,104.5 Z"/></g>
<g><path style="opacity:1" fill="#781814" d="M 244.5,104.5 C 372.332,103.5 500.332,103.167 628.5,103.5C 628.833,217.668 628.5,331.668 627.5,445.5C 627.5,331.833 627.5,218.167 627.5,104.5C 499.833,104.5 372.167,104.5 244.5,104.5 Z"/></g>
<g><path style="opacity:1" fill="#45381d" d="M 674.5,219.5 C 673.25,219.577 672.417,220.244 672,221.5C 671.819,224.695 671.319,227.695 670.5,230.5C 670.665,226.818 670.499,223.152 670,219.5C 655.411,207.991 648.744,192.991 650,174.5C 653.652,165.191 657.318,155.858 661,146.5C 666.121,130.366 661.954,117.366 648.5,107.5C 650.088,104.743 652.421,103.91 655.5,105C 660.059,109.28 663.226,114.447 665,120.5C 666.691,127.78 668.024,135.113 669,142.5C 677.399,153.632 683.399,165.966 687,179.5C 688.181,190.115 686.181,200.115 681,209.5C 678.563,212.72 676.397,216.053 674.5,219.5 Z"/></g>
<g><path style="opacity:1" fill="#211c0e" d="M 701.5,102.5 C 710.168,113.564 710.835,125.231 703.5,137.5C 702.276,135.102 702.442,132.769 704,130.5C 705.223,120.918 704.39,111.585 701.5,102.5 Z"/></g>
<g><path style="opacity:1" fill="#521411" d="M 620.5,111.5 C 497.833,111.5 375.167,111.5 252.5,111.5C 252.5,221.833 252.5,332.167 252.5,442.5C 251.501,332.001 251.167,221.335 251.5,110.5C 374.668,110.167 497.668,110.5 620.5,111.5 Z"/></g>
<g><path style="opacity:1" fill="#0d0d0d" d="M 620.5,111.5 C 620.667,225.167 620.5,338.834 620,452.5C 615.985,490.03 600.152,521.53 572.5,547C 532.699,580.483 487.199,602.983 436,614.5C 389.912,603.701 348.079,584.201 310.5,556C 278.804,530.953 259.638,498.453 253,458.5C 252.501,453.177 252.334,447.844 252.5,442.5C 252.5,332.167 252.5,221.833 252.5,111.5C 375.167,111.5 497.833,111.5 620.5,111.5 Z"/></g>
<g><path style="opacity:1" fill="#eef2ed" d="M 173.5,110.5 C 179.486,116.49 185.153,122.823 190.5,129.5C 192.886,127.269 194.719,124.603 196,121.5C 196.257,125.731 195.09,129.565 192.5,133C 193.667,136.5 194.833,140 196,143.5C 197.333,141.5 198.667,139.5 200,137.5C 200.654,136.304 201.154,136.304 201.5,137.5C 198.995,142.122 196.828,146.789 195,151.5C 194.626,150.584 194.126,149.75 193.5,149C 178.984,147.653 178.984,146.487 193.5,145.5C 193.263,141.29 191.93,137.456 189.5,134C 186.167,133.667 182.833,133.333 179.5,133C 182.451,132.904 185.118,132.071 187.5,130.5C 181.829,124.475 177.162,117.808 173.5,110.5 Z"/></g>
<g><path style="opacity:1" fill="#2a3e21" d="M 613.5,118.5 C 495.5,118.5 377.5,118.5 259.5,118.5C 259.5,224.833 259.5,331.167 259.5,437.5C 260.791,437.263 261.791,437.596 262.5,438.5C 261.167,438.5 259.833,438.5 258.5,438.5C 258.5,331.5 258.5,224.5 258.5,117.5C 377.001,117.167 495.335,117.5 613.5,118.5 Z"/></g>
<g><path style="opacity:1" fill="#4b7138" d="M 613.5,118.5 C 613.5,225.5 613.5,332.5 613.5,439.5C 607.158,439.666 600.825,439.5 594.5,439C 576.389,434.648 558.056,431.815 539.5,430.5C 510.539,434.16 481.539,437.493 452.5,440.5C 454.288,432.3 456.788,424.3 460,416.5C 463.538,404.399 465.205,392.065 465,379.5C 464.226,375.951 462.893,372.618 461,369.5C 457.065,372.762 453.898,376.596 451.5,381C 453.152,390.371 452.318,399.538 449,408.5C 446.886,414.783 442.719,418.783 436.5,420.5C 431.159,407.091 432.992,394.758 442,383.5C 457.744,367.094 472.744,350.094 487,332.5C 488.444,329.945 489.611,327.279 490.5,324.5C 489.03,320.226 487.03,316.226 484.5,312.5C 480.424,320.989 475.591,328.989 470,336.5C 456.263,349.948 442.429,363.282 428.5,376.5C 421.218,367.379 413.718,358.379 406,349.5C 401.846,340.528 398.846,331.195 397,321.5C 394,323.833 391,326.167 388,328.5C 388.432,337.464 391.098,345.798 396,353.5C 402.552,364.716 409.886,375.383 418,385.5C 418.874,398.861 420.207,412.194 422,425.5C 423.64,430.775 425.807,435.775 428.5,440.5C 401.178,437.073 373.844,433.74 346.5,430.5C 327.598,431.725 308.932,434.558 290.5,439C 281.132,439.752 271.799,439.585 262.5,438.5C 261.791,437.596 260.791,437.263 259.5,437.5C 259.5,331.167 259.5,224.833 259.5,118.5C 377.5,118.5 495.5,118.5 613.5,118.5 Z"/></g>
<g><path style="opacity:1" fill="#699685" d="M 459.5,128.5 C 466.708,131.51 474.041,134.344 481.5,137C 488.833,137.333 496.167,137.667 503.5,138C 514.827,141.863 525.327,147.03 535,153.5C 536.804,150.752 538.971,148.252 541.5,146C 544.702,144.517 548.036,144.183 551.5,145C 556.527,146.507 560.86,149.007 564.5,152.5C 563.778,154.944 562.778,157.278 561.5,159.5C 563.987,163.333 567.487,165.667 572,166.5C 572.498,168.527 572.331,170.527 571.5,172.5C 571.529,174.029 572.196,175.196 573.5,176C 578.036,177.379 582.703,177.879 587.5,177.5C 587.657,178.873 587.49,180.207 587,181.5C 584.562,183.429 582.728,185.762 581.5,188.5C 581.608,189.442 581.941,190.275 582.5,191C 586.142,192.27 589.808,193.436 593.5,194.5C 590.167,195.167 586.833,195.833 583.5,196.5C 587.118,199.121 590.451,201.954 593.5,205C 593.01,206.982 592.01,208.649 590.5,210C 594.07,211.703 595.236,214.537 594,218.5C 592.513,219.155 591.347,220.155 590.5,221.5C 593.833,225.167 597.167,228.833 600.5,232.5C 598.295,233.871 596.628,235.704 595.5,238C 597.856,241.543 599.522,245.377 600.5,249.5C 598.5,249.5 596.5,249.5 594.5,249.5C 594.666,256.508 594.5,263.508 594,270.5C 592.667,267.167 591.333,263.833 590,260.5C 588.484,257.994 586.318,257.16 583.5,258C 581.326,261.004 578.992,263.837 576.5,266.5C 575.587,260.52 575.587,254.52 576.5,248.5C 573.557,248.647 570.724,249.313 568,250.5C 567.5,250.167 567,249.833 566.5,249.5C 568.995,245.853 570.329,241.853 570.5,237.5C 567.412,237.377 564.745,238.377 562.5,240.5C 561.522,240.023 560.689,239.357 560,238.5C 559.901,232.294 559.067,226.294 557.5,220.5C 550.457,220.28 543.457,220.614 536.5,221.5C 540.361,212.775 544.528,204.108 549,195.5C 550.145,192.568 550.978,189.568 551.5,186.5C 542.728,189.411 535.061,194.245 528.5,201C 526.783,202.559 524.783,203.392 522.5,203.5C 525.547,189.418 520.214,180.584 506.5,177C 503.5,176.667 500.5,176.333 497.5,176C 496.743,174.488 495.743,173.154 494.5,172C 489.828,169.148 484.828,167.814 479.5,168C 477.126,170.039 475.126,172.372 473.5,175C 469.5,175.667 465.5,175.667 461.5,175C 458.833,172.333 456.167,169.667 453.5,167C 447.091,167.088 440.758,167.755 434.5,169C 433.941,168.275 433.608,167.442 433.5,166.5C 434.467,164.238 435.134,161.905 435.5,159.5C 429.048,159.916 422.715,159.416 416.5,158C 415.167,157 415.167,156 416.5,155C 419.353,153.57 422.353,152.737 425.5,152.5C 425.636,149.449 425.302,146.449 424.5,143.5C 425.353,139.226 428.02,137.059 432.5,137C 440.554,136.782 448.554,136.615 456.5,136.5C 457.9,133.965 458.9,131.298 459.5,128.5 Z"/></g>
<g><path style="opacity:1" fill="#f3c101" d="M 665.5,147.5 C 673.333,156.829 678.833,167.496 682,179.5C 683.352,188.252 682.018,196.585 678,204.5C 676.311,207.891 674.144,210.891 671.5,213.5C 658.539,203.245 653.039,189.911 655,173.5C 658.789,164.925 662.289,156.259 665.5,147.5 Z"/></g>
<g><path style="opacity:1" fill="#699685" d="M 325.5,153.5 C 340.504,153.333 355.504,153.5 370.5,154C 374.186,154.559 377.853,155.226 381.5,156C 384.875,158.686 388.541,160.853 392.5,162.5C 398.262,159.891 404.262,159.057 410.5,160C 411.984,161.574 413.651,162.907 415.5,164C 419.821,164.499 424.154,164.666 428.5,164.5C 427.641,169.28 429.308,172.78 433.5,175C 438.737,175.385 443.737,174.551 448.5,172.5C 449.5,172.833 450.5,173.167 451.5,173.5C 443.963,178.199 436.297,182.699 428.5,187C 423.833,187.333 419.167,187.667 414.5,188C 409.625,190.897 404.292,192.23 398.5,192C 396.302,197.442 393.635,202.608 390.5,207.5C 388.167,205.5 385.833,203.5 383.5,201.5C 378.539,205.126 373.872,209.126 369.5,213.5C 367.183,210.683 364.683,208.016 362,205.5C 359.318,208.35 356.484,211.016 353.5,213.5C 351.483,212.826 349.817,211.659 348.5,210C 347.167,209.333 345.833,209.333 344.5,210C 341.333,215.167 338.167,220.333 335,225.5C 330.302,229.201 325.969,233.201 322,237.5C 321.228,237.355 320.561,237.022 320,236.5C 319.501,231.511 319.334,226.511 319.5,221.5C 310.509,218.437 303.176,220.603 297.5,228C 294.27,229.308 290.936,230.308 287.5,231C 286.102,234.31 284.102,237.143 281.5,239.5C 276.24,230.973 275.24,221.973 278.5,212.5C 274.719,212.026 271.552,210.359 269,207.5C 268.316,206.216 268.483,205.049 269.5,204C 276.18,203.073 282.846,202.073 289.5,201C 287.667,199.833 285.833,198.667 284,197.5C 283.312,196.668 283.479,196.002 284.5,195.5C 287.715,193.726 291.048,192.226 294.5,191C 303.065,190.444 311.398,188.777 319.5,186C 312.224,184.506 304.891,183.172 297.5,182C 296.542,180.853 296.875,179.853 298.5,179C 301.833,177 305.167,175 308.5,173C 318.902,172.704 329.235,171.704 339.5,170C 340.308,169.692 340.975,169.192 341.5,168.5C 335.261,163.545 328.261,159.879 320.5,157.5C 319.167,156.833 319.167,156.167 320.5,155.5C 322.336,154.972 324.003,154.306 325.5,153.5 Z"/></g>
<g><path style="opacity:1" fill="#728a9c" d="M 481.5,173.5 C 484.573,174.199 487.573,175.199 490.5,176.5C 491.553,177.438 492.22,178.605 492.5,180C 491.922,181.811 491.422,183.645 491,185.5C 490.664,191.289 490.498,196.956 490.5,202.5C 480.733,204.698 474.233,201.032 471,191.5C 470.502,188.183 470.335,184.85 470.5,181.5C 476.14,181.516 479.806,178.849 481.5,173.5 Z"/></g>
<g><path style="opacity:1" fill="#27210f" d="M 663.5,170.5 C 663.257,180.378 665.257,189.878 669.5,199C 669.167,199.5 668.833,200 668.5,200.5C 660.48,191.475 658.813,181.475 663.5,170.5 Z"/></g>
<g><path style="opacity:1" fill="#44371d" d="M 696.5,315.5 C 694.464,318.338 692.964,318.005 692,314.5C 691.825,318.211 691.325,321.878 690.5,325.5C 689.893,325.376 689.56,325.043 689.5,324.5C 690.645,320.689 690.812,316.689 690,312.5C 679.564,298.524 675.23,282.857 677,265.5C 678.723,260.387 680.723,255.387 683,250.5C 688.084,241.997 693.417,233.664 699,225.5C 699.479,211.957 701.479,198.623 705,185.5C 706.226,182.048 707.726,178.715 709.5,175.5C 710.325,174.614 711.325,174.281 712.5,174.5C 712.664,177.187 712.497,179.854 712,182.5C 705.86,196.549 703.86,211.215 706,226.5C 709.406,237.719 713.406,248.719 718,259.5C 720.003,281.806 712.837,300.472 696.5,315.5 Z"/></g>
<g><path style="opacity:1" fill="#728a9d" d="M 499.5,181.5 C 504.672,182.168 509.505,183.835 514,186.5C 514.419,187.672 515.085,188.672 516,189.5C 516.333,194.167 516.667,198.833 517,203.5C 519.106,207.118 517.939,209.285 513.5,210C 502.356,210.364 496.356,204.864 495.5,193.5C 495.916,189.159 497.249,185.159 499.5,181.5 Z"/></g>
<g><path style="opacity:1" fill="#e9efe9" d="M 203.5,176.5 C 204.043,176.56 204.376,176.893 204.5,177.5C 199.999,184.673 196.666,192.34 194.5,200.5C 197.577,199.609 200.577,198.776 203.5,198C 200.71,200.478 197.544,202.312 194,203.5C 192.985,207.44 192.485,211.44 192.5,215.5C 196.665,214.955 200.665,214.121 204.5,213C 200.61,215.947 196.277,217.78 191.5,218.5C 191.852,221.073 191.352,223.406 190,225.5C 190.55,219.948 188.883,215.282 185,211.5C 183.686,208.911 183.019,206.244 183,203.5C 184.497,207.165 186.497,210.498 189,213.5C 189.446,210.657 189.946,207.824 190.5,205C 188.452,199.652 187.618,194.152 188,188.5C 188.707,192.335 189.874,196.002 191.5,199.5C 194.649,191.361 198.649,183.695 203.5,176.5 Z"/></g>
<g><path style="opacity:1" fill="#699684" d="M 452.5,187.5 C 454.134,192.437 455.134,197.771 455.5,203.5C 458.768,201.619 461.934,199.619 465,197.5C 467.349,201.688 469.849,205.855 472.5,210C 476.835,210.263 481.168,210.097 485.5,209.5C 485.334,214.179 485.501,218.845 486,223.5C 487.971,227.186 490.805,228.186 494.5,226.5C 496.253,223.995 497.753,221.329 499,218.5C 500.062,217.903 501.228,217.57 502.5,217.5C 508.284,219.253 513.951,221.253 519.5,223.5C 519.808,224.308 520.308,224.975 521,225.5C 521.122,235.581 521.955,245.581 523.5,255.5C 516.251,257.618 509.751,256.284 504,251.5C 501.304,254.538 498.97,257.871 497,261.5C 495.082,257.996 492.916,254.663 490.5,251.5C 489.236,254.79 488.07,258.124 487,261.5C 484.167,257.833 481.333,254.167 478.5,250.5C 472.892,253.468 468.392,252.135 465,246.5C 456.984,255.047 455.484,253.88 460.5,243C 458.179,243.887 455.679,244.72 453,245.5C 451.338,245.612 450.171,244.946 449.5,243.5C 451.544,240.377 453.211,237.044 454.5,233.5C 454.167,233.167 453.833,232.833 453.5,232.5C 451.167,234.333 448.833,236.167 446.5,238C 443.628,238.315 440.795,238.815 438,239.5C 435.804,242.048 433.971,244.882 432.5,248C 428.656,249.586 424.656,250.586 420.5,251C 418.772,255.907 415.438,258.741 410.5,259.5C 410.49,264.915 409.823,270.248 408.5,275.5C 403.386,276.858 398.386,276.524 393.5,274.5C 392.395,277.897 391.895,281.231 392,284.5C 387.333,286.5 384,289.833 382,294.5C 380.261,296.741 378.094,298.408 375.5,299.5C 375.167,298.667 374.833,297.833 374.5,297C 376.032,291.913 376.532,286.746 376,281.5C 374.638,284.236 372.804,286.569 370.5,288.5C 366.037,284.007 360.703,281.007 354.5,279.5C 356.688,276.478 359.355,273.978 362.5,272C 358.874,272.316 355.207,272.816 351.5,273.5C 347.769,272.979 344.102,272.146 340.5,271C 345.672,267.915 350.672,264.581 355.5,261C 365.516,258.939 375.183,255.772 384.5,251.5C 385.208,248.634 385.875,245.8 386.5,243C 391.186,243.034 395.852,243.534 400.5,244.5C 400.5,243.167 400.5,241.833 400.5,240.5C 407.168,238.444 413.835,236.278 420.5,234C 421.282,231.26 421.782,228.426 422,225.5C 430.469,227.69 438.302,226.19 445.5,221C 447.016,219.103 447.683,216.936 447.5,214.5C 443.448,214.888 439.448,215.555 435.5,216.5C 434.966,213.893 435.633,211.393 437.5,209C 434.438,208.259 431.438,208.425 428.5,209.5C 427.773,205.489 427.107,201.489 426.5,197.5C 435.527,194.635 444.194,191.302 452.5,187.5 Z"/></g>
<g><path style="opacity:1" fill="#738a9e" d="M 415.5,192.5 C 419.224,192.05 421.391,193.717 422,197.5C 424.515,219.65 414.681,230.15 392.5,229C 384.461,225.417 380.627,219.25 381,210.5C 381.689,209.643 382.522,208.977 383.5,208.5C 386.77,210.267 389.603,212.6 392,215.5C 395.436,209.627 398.603,203.627 401.5,197.5C 405.192,196.748 408.858,195.914 412.5,195C 413.942,194.623 414.942,193.79 415.5,192.5 Z"/></g>
<g><path style="opacity:1" fill="#738a9d" d="M 361.5,212.5 C 364.5,214.668 367,217.334 369,220.5C 371.628,218.874 373.961,216.874 376,214.5C 376.761,223.403 380.928,230.069 388.5,234.5C 381.764,239.933 374.097,241.767 365.5,240C 357.101,235.702 353.601,228.869 355,219.5C 357.372,217.297 359.539,214.963 361.5,212.5 Z"/></g>
<g><path style="opacity:1" fill="#699684" d="M 346.5,218.5 C 348.018,222.566 348.851,226.899 349,231.5C 351.154,233.648 352.654,236.148 353.5,239C 352.787,244.476 352.287,249.976 352,255.5C 350.212,261.622 346.045,264.622 339.5,264.5C 337.239,263.352 334.905,262.852 332.5,263C 329.643,267.357 325.977,270.857 321.5,273.5C 319.167,271.5 316.833,269.5 314.5,267.5C 312.742,268.128 311.242,269.128 310,270.5C 308.451,278.545 303.951,283.212 296.5,284.5C 299.345,279.901 300.012,275.068 298.5,270C 290.876,272.156 283.21,274.156 275.5,276C 282.751,269.126 290.918,263.626 300,259.5C 302.464,253.939 304.631,248.273 306.5,242.5C 309.206,241.207 311.706,241.541 314,243.5C 315.43,241.33 316.93,241.164 318.5,243C 320.833,243.667 323.167,243.667 325.5,243C 328.667,238.5 332.5,234.667 337,231.5C 340.176,227.137 343.343,222.804 346.5,218.5 Z"/></g>
<g><path style="opacity:1" fill="#f4c200" d="M 701.5,230.5 C 705.205,240.096 709.039,249.762 713,259.5C 715.417,279.513 709.417,296.513 695,310.5C 679.825,292.301 677.492,272.634 688,251.5C 692.511,244.472 697.011,237.472 701.5,230.5 Z"/></g>
<g><path style="opacity:1" fill="#699685" d="M 531.5,240.5 C 533.527,240.338 535.527,240.505 537.5,241C 539.101,244.067 541.268,246.567 544,248.5C 549.443,244.174 555.276,243.507 561.5,246.5C 559.613,251.225 560.946,254.725 565.5,257C 564.269,258.183 564.269,259.349 565.5,260.5C 567.059,261.074 568.559,261.74 570,262.5C 570.411,272.118 574.578,274.451 582.5,269.5C 590.576,275.665 596.743,283.332 601,292.5C 600.999,302.522 600.332,312.522 599,322.5C 597.89,324.037 596.39,324.703 594.5,324.5C 594.45,330.686 594.783,336.852 595.5,343C 595.358,347.76 594.192,352.26 592,356.5C 589.213,350.806 587.213,344.806 586,338.5C 585.586,338.043 585.086,337.709 584.5,337.5C 582.496,339.005 580.663,340.672 579,342.5C 574.261,336.702 570.261,330.369 567,323.5C 566.131,326.33 564.964,328.997 563.5,331.5C 558.622,325.346 557.622,318.679 560.5,311.5C 556.154,310.99 551.988,309.99 548,308.5C 547.5,301.842 547.334,295.175 547.5,288.5C 543.152,288.909 538.819,289.076 534.5,289C 532.381,283.29 529.048,282.29 524.5,286C 523.167,286.667 521.833,286.667 520.5,286C 518.167,282.333 515.833,278.667 513.5,275C 509.185,272.451 504.519,271.118 499.5,271C 498.643,270.311 497.977,269.478 497.5,268.5C 501.439,265.797 505.773,264.63 510.5,265C 514.993,268.493 519.159,272.327 523,276.5C 522.182,273.164 521.015,269.831 519.5,266.5C 519.608,265.558 519.941,264.725 520.5,264C 523.696,263.604 526.53,262.438 529,260.5C 528.854,255.176 528.854,249.843 529,244.5C 529.48,242.867 530.313,241.534 531.5,240.5 Z"/></g>
<g><path style="opacity:1" fill="#fdfdfd" d="M 180.5,241.5 C 199.759,238.542 212.592,246.209 219,264.5C 219.978,274.561 216.478,282.728 208.5,289C 202.984,289.829 200.151,287.329 200,281.5C 198.367,284.681 197.034,288.014 196,291.5C 194.793,287.133 193.459,282.8 192,278.5C 190.622,282.388 189.622,286.388 189,290.5C 186.274,287.714 184.607,284.381 184,280.5C 183.012,283.424 182.346,286.424 182,289.5C 179.032,291.991 175.865,292.157 172.5,290C 157.516,274.597 157.849,259.597 173.5,245C 175.925,243.787 178.259,242.621 180.5,241.5 Z"/></g>
<g><path style="opacity:1" fill="#738a9d" d="M 438.5,244.5 C 440.833,244.5 443.167,244.5 445.5,244.5C 445.351,245.552 445.517,246.552 446,247.5C 448.387,249.17 450.721,250.837 453,252.5C 454.097,265.409 448.097,272.075 435,272.5C 427.129,272.148 420.629,268.981 415.5,263C 418.372,260.463 420.872,257.63 423,254.5C 423.893,255.081 424.893,255.415 426,255.5C 429.052,254.289 432.219,253.455 435.5,253C 437.196,250.413 438.196,247.579 438.5,244.5 Z"/></g>
<g><path style="opacity:1" fill="#738a9d" d="M 463.5,253.5 C 466.084,253.569 468.084,254.735 469.5,257C 472.047,257.66 474.547,257.493 477,256.5C 481.084,259.557 482.751,263.557 482,268.5C 479.37,282.513 471.537,287.013 458.5,282C 455.041,279.918 452.374,277.085 450.5,273.5C 456.419,268.999 459.753,262.999 460.5,255.5C 461.739,255.058 462.739,254.391 463.5,253.5 Z"/></g>
<g><path style="opacity:1" fill="#1e190d" d="M 701.5,255.5 C 706.702,262.776 707.868,270.776 705,279.5C 702.906,284.702 700.072,289.369 696.5,293.5C 695.386,292.277 695.219,290.944 696,289.5C 702.373,278.979 704.206,267.646 701.5,255.5 Z"/></g>
<g><path style="opacity:1" fill="#44361d" d="M 672.5,403.5 C 671.504,403.414 670.671,403.748 670,404.5C 669.292,403.619 668.458,402.953 667.5,402.5C 657.934,394.37 651.101,384.37 647,372.5C 646.333,366.5 646.333,360.5 647,354.5C 651.043,345.425 654.21,336.091 656.5,326.5C 654.237,318.208 652.07,309.875 650,301.5C 649.333,293.167 649.333,284.833 650,276.5C 652.731,268.445 654.898,268.612 656.5,277C 651.559,292.748 653.059,307.914 661,322.5C 670.837,333.681 678.17,346.348 683,360.5C 684.56,371.243 683.227,381.576 679,391.5C 676.535,395.437 674.368,399.437 672.5,403.5 Z"/></g>
<g><path style="opacity:1" fill="#699685" d="M 332.5,273.5 C 337.899,275.113 343.066,277.446 348,280.5C 348.147,286.743 346.647,292.577 343.5,298C 341.167,298.333 338.833,298.667 336.5,299C 334.108,301.728 332.108,304.728 330.5,308C 325.988,308.508 322.488,310.675 320,314.5C 317.997,319.846 314.997,324.513 311,328.5C 310.501,332.486 310.334,336.486 310.5,340.5C 307.5,340.5 304.5,340.5 301.5,340.5C 302.115,348.422 298.782,351.422 291.5,349.5C 291.498,353.349 289.665,356.015 286,357.5C 281.955,351.414 279.621,344.747 279,337.5C 275.541,331.939 273.874,325.939 274,319.5C 276.313,309.687 281.48,301.854 289.5,296C 294.989,293.472 300.656,292.805 306.5,294C 315.353,287.303 324.02,280.47 332.5,273.5 Z"/></g>
<g><path style="opacity:1" fill="#699684" d="M 419.5,274.5 C 427.281,279.802 435.947,281.969 445.5,281C 447.792,282.29 449.792,283.957 451.5,286C 457.424,287.795 463.424,289.295 469.5,290.5C 477.905,289.925 484.072,285.925 488,278.5C 488.333,283.5 488.667,288.5 489,293.5C 491.703,290.462 494.703,287.795 498,285.5C 496.222,299.497 500.055,311.663 509.5,322C 513.123,323.156 516.789,324.156 520.5,325C 522.667,325.833 524.167,327.333 525,329.5C 525.806,335.084 525.639,340.584 524.5,346C 521.812,345.993 519.312,345.16 517,343.5C 515.883,344.949 515.216,346.616 515,348.5C 514.167,346.5 513.333,344.5 512.5,342.5C 510.021,344.076 507.354,345.076 504.5,345.5C 503.935,340.851 503.435,336.184 503,331.5C 501.409,334.352 500.076,337.352 499,340.5C 496.941,328.731 492.941,317.731 487,307.5C 484.316,303.287 480.816,302.454 476.5,305C 475.275,306.563 473.775,307.73 472,308.5C 468.346,306.179 465.346,303.179 463,299.5C 459.425,302.953 456.091,306.619 453,310.5C 450.333,308.5 447.667,306.5 445,304.5C 443.08,307.339 441.413,310.339 440,313.5C 438.649,315.019 437.149,316.352 435.5,317.5C 434.086,316.376 432.586,315.376 431,314.5C 430.607,311.367 429.774,308.367 428.5,305.5C 418.221,309.302 408.888,314.636 400.5,321.5C 400.621,319.023 401.621,316.523 403.5,314C 397.502,315.954 392.502,319.621 388.5,325C 386.323,326.202 383.989,326.702 381.5,326.5C 378.63,334.58 375.463,342.58 372,350.5C 371.085,349.672 370.419,348.672 370,347.5C 369.501,342.845 369.334,338.179 369.5,333.5C 365.973,334.26 362.64,335.594 359.5,337.5C 359.167,337.167 358.833,336.833 358.5,336.5C 360.51,331.412 364.01,327.745 369,325.5C 369.835,321.497 368.669,318.164 365.5,315.5C 367.5,312.5 369.5,309.5 371.5,306.5C 374.717,306.342 378.05,306.175 381.5,306C 382.732,302.202 384.732,298.869 387.5,296C 392.106,294.839 396.773,293.839 401.5,293C 402.348,290.329 402.681,287.829 402.5,285.5C 404.915,286.305 407.249,287.305 409.5,288.5C 411.65,286.851 413.65,285.018 415.5,283C 417.473,282.505 419.473,282.338 421.5,282.5C 420.833,279.833 420.167,277.167 419.5,274.5 Z"/></g>
<g><path style="opacity:1" fill="#738a9e" d="M 510.5,281.5 C 511.496,281.414 512.329,281.748 513,282.5C 515.599,290.551 520.599,292.551 528,288.5C 529.706,290.727 531.54,292.894 533.5,295C 536.732,294.611 539.898,294.778 543,295.5C 543.402,306.163 538.568,313.663 528.5,318C 510.368,319.197 502.535,310.697 505,292.5C 505.805,288.224 507.638,284.557 510.5,281.5 Z"/></g>
<g><path style="opacity:1" fill="#738a9d" d="M 351.5,286.5 C 356.91,288.026 362.244,289.859 367.5,292C 371.021,305.58 365.688,313.58 351.5,316C 341.958,318.127 337.791,314.294 339,304.5C 342.082,302.375 345.249,300.375 348.5,298.5C 350.261,294.697 351.261,290.697 351.5,286.5 Z"/></g>
<g><path style="opacity:1" fill="#738a9d" d="M 333.5,309.5 C 337.143,320.593 344.477,323.593 355.5,318.5C 357.356,325.093 355.356,330.26 349.5,334C 337.971,340.965 327.471,339.798 318,330.5C 319.657,324.266 322.824,318.766 327.5,314C 330.84,314.149 332.84,312.649 333.5,309.5 Z"/></g>
<g><path style="opacity:1" fill="#937e65" d="M 421.5,312.5 C 422.496,312.414 423.329,312.748 424,313.5C 426.221,319.61 429.221,325.277 433,330.5C 438.377,336.208 443.377,342.208 448,348.5C 448.667,349.5 448.667,350.5 448,351.5C 445.833,353.667 443.667,355.833 441.5,358C 440.5,358.667 439.5,358.667 438.5,358C 433.041,350.873 427.208,344.039 421,337.5C 417.493,332.49 414.493,327.157 412,321.5C 411.316,320.216 411.483,319.049 412.5,318C 415.564,316.141 418.564,314.308 421.5,312.5 Z"/></g>
<g><path style="opacity:1" fill="#937e65" d="M 452.5,440.5 C 451.631,442.717 451.298,445.05 451.5,447.5C 451.173,457.348 451.506,467.014 452.5,476.5C 452.448,478.903 452.781,481.236 453.5,483.5C 458.452,496.271 467.786,503.771 481.5,506C 506.841,505.719 532.174,505.719 557.5,506C 561.974,504.192 565.141,501.026 567,496.5C 567.096,505.41 562.596,510.243 553.5,511C 546.492,511.5 539.492,511.333 532.5,510.5C 522.68,511.665 512.846,512.665 503,513.5C 494.092,512.939 485.258,512.106 476.5,511C 480.11,514.639 484.444,516.972 489.5,518C 500.451,519.213 511.451,519.88 522.5,520C 526.112,521.139 529.446,522.806 532.5,525C 537.189,525.291 541.856,525.291 546.5,525C 542.715,527.484 538.549,528.984 534,529.5C 529.422,528.628 525.255,526.795 521.5,524C 514.306,523.794 507.14,524.294 500,525.5C 489.818,523.728 479.652,522.228 469.5,521C 475.016,523.589 480.016,526.922 484.5,531C 489.5,531.333 494.5,531.667 499.5,532C 505.221,536.721 511.221,541.054 517.5,545C 521.015,545.519 524.348,545.186 527.5,544C 523.336,548.14 518.336,549.474 512.5,548C 506.593,545.097 500.927,541.764 495.5,538C 490.5,537.667 485.5,537.333 480.5,537C 474.324,533.553 467.657,531.386 460.5,530.5C 461.641,536.158 464.641,540.658 469.5,544C 473.926,546.389 478.592,548.222 483.5,549.5C 486.796,554.297 491.129,557.797 496.5,560C 492.5,560.667 488.5,560.667 484.5,560C 476.376,552.937 467.043,548.603 456.5,547C 461.095,549.925 463.595,554.091 464,559.5C 467.301,564.234 471.801,567.067 477.5,568C 473.574,571.226 469.574,571.226 465.5,568C 461,563.5 456.5,559 452,554.5C 453.626,563.705 454.626,573.038 455,582.5C 457.743,584.788 460.577,586.955 463.5,589C 457.123,590.227 452.29,588.061 449,582.5C 448.129,570.22 445.796,558.22 442,546.5C 440.128,549.205 439.295,552.205 439.5,555.5C 441.63,562.813 441.796,570.147 440,577.5C 436.825,583.506 431.992,585.839 425.5,584.5C 434.141,580.466 436.974,573.799 434,564.5C 434.004,560.808 433.004,557.475 431,554.5C 429.067,559.978 426.567,565.145 423.5,570C 420.654,572.173 417.488,573.673 414,574.5C 411.837,574.505 410.337,573.505 409.5,571.5C 414.852,570.9 418.685,568.233 421,563.5C 422.206,557.804 423.539,552.137 425,546.5C 425.825,542.789 425.659,539.122 424.5,535.5C 420.531,539.428 417.031,543.761 414,548.5C 408.242,552.254 403.075,556.754 398.5,562C 395.068,564.072 391.402,564.738 387.5,564C 389.67,562.414 392.004,561.08 394.5,560C 399.691,554.443 404.524,548.61 409,542.5C 411.165,538.673 412.498,534.673 413,530.5C 408.928,532.297 405.095,534.463 401.5,537C 396.833,537.333 392.167,537.667 387.5,538C 383.156,540.171 379.156,542.837 375.5,546C 368.211,550.004 361.544,549.337 355.5,544C 358.652,545.186 361.985,545.519 365.5,545C 371.779,541.054 377.779,536.721 383.5,532C 388.5,531.667 393.5,531.333 398.5,531C 401.956,527.549 405.956,524.882 410.5,523C 395.485,523.716 380.485,525.049 365.5,527C 360.682,529.746 355.682,531.913 350.5,533.5C 345.695,532.764 341.362,530.93 337.5,528C 342.01,529.276 346.677,529.609 351.5,529C 356.108,525.863 361.108,523.53 366.5,522C 375.827,520.667 385.16,519.334 394.5,518C 399.124,516.69 403.124,514.356 406.5,511C 389.651,511.144 372.984,509.477 356.5,506C 345.5,505.667 334.5,505.333 323.5,505C 317.491,502.485 314.991,497.985 316,491.5C 317.679,495.382 320.179,498.548 323.5,501C 333.832,501.285 344.165,501.118 354.5,500.5C 367.267,500.677 379.933,501.843 392.5,504C 410.915,507.299 423.582,500.466 430.5,483.5C 430.993,481.194 431.326,478.861 431.5,476.5C 430.971,466.842 430.638,457.175 430.5,447.5C 430.829,444.772 430.163,442.438 428.5,440.5C 425.807,435.775 423.64,430.775 422,425.5C 420.207,412.194 418.874,398.861 418,385.5C 409.886,375.383 402.552,364.716 396,353.5C 391.098,345.798 388.432,337.464 388,328.5C 391,326.167 394,323.833 397,321.5C 398.846,331.195 401.846,340.528 406,349.5C 413.718,358.379 421.218,367.379 428.5,376.5C 442.429,363.282 456.263,349.948 470,336.5C 475.591,328.989 480.424,320.989 484.5,312.5C 487.03,316.226 489.03,320.226 490.5,324.5C 489.611,327.279 488.444,329.945 487,332.5C 472.744,350.094 457.744,367.094 442,383.5C 432.992,394.758 431.159,407.091 436.5,420.5C 442.719,418.783 446.886,414.783 449,408.5C 452.318,399.538 453.152,390.371 451.5,381C 453.898,376.596 457.065,372.762 461,369.5C 462.893,372.618 464.226,375.951 465,379.5C 465.205,392.065 463.538,404.399 460,416.5C 456.788,424.3 454.288,432.3 452.5,440.5 Z"/></g>
<g><path style="opacity:1" fill="#f1c001" d="M 660.5,331.5 C 669.696,340.534 675.863,351.534 679,364.5C 680.356,376.592 677.189,387.259 669.5,396.5C 655.066,385.979 649.233,371.979 652,354.5C 655.403,347.03 658.236,339.363 660.5,331.5 Z"/></g>
<g><path style="opacity:1" fill="#eaf0ea" d="M 203.5,330.5 C 204.465,331.721 204.298,333.054 203,334.5C 199.38,339.789 195.38,344.789 191,349.5C 190.517,350.448 190.351,351.448 190.5,352.5C 193.85,352.335 197.183,352.502 200.5,353C 196.241,354.042 191.907,354.875 187.5,355.5C 185.029,359.126 184.029,363.126 184.5,367.5C 188.846,367.334 193.179,367.501 197.5,368C 192.909,369.053 188.242,369.886 183.5,370.5C 183.023,371.931 182.357,373.264 181.5,374.5C 180.682,371.893 180.182,369.226 180,366.5C 176.952,363.009 175.285,359.009 175,354.5C 176.256,358.016 178.256,361.016 181,363.5C 182.167,360 183.333,356.5 184.5,353C 181.91,349.565 180.743,345.731 181,341.5C 181.911,344.576 183.744,346.909 186.5,348.5C 192.16,342.506 197.827,336.506 203.5,330.5 Z"/></g>
<g><path style="opacity:1" fill="#19160c" d="M 660.5,351.5 C 660.527,356.618 660.694,361.952 661,367.5C 662.087,371.766 663.754,375.766 666,379.5C 666.781,380.944 666.614,382.277 665.5,383.5C 657.132,373.836 655.465,363.169 660.5,351.5 Z"/></g>
<g><path style="opacity:1" fill="#43361d" d="M 687.5,498.5 C 686.109,500.571 684.276,502.238 682,503.5C 681.819,506.695 681.319,509.695 680.5,512.5C 680.663,510.143 680.497,507.81 680,505.5C 676.6,508.414 673.1,511.08 669.5,513.5C 668.504,513.414 667.671,513.748 667,514.5C 666.148,513.429 665.315,512.429 664.5,511.5C 656.697,496.652 655.531,481.319 661,465.5C 664.438,458.272 668.604,451.606 673.5,445.5C 676.893,443.927 678.226,441.26 677.5,437.5C 678.268,438.263 678.768,439.263 679,440.5C 687.481,433.683 693.148,425.017 696,414.5C 697.885,405.191 699.551,395.858 701,386.5C 702.667,383.833 704.333,383.833 706,386.5C 706.692,391.891 706.359,397.225 705,402.5C 701.386,413.839 697.886,425.173 694.5,436.5C 695.558,443.178 696.724,449.845 698,456.5C 700.115,471.973 696.615,485.973 687.5,498.5 Z"/></g>
<g><path style="opacity:1" fill="#ebf1eb" d="M 175.5,412.5 C 182.223,421.946 187.39,432.279 191,443.5C 192.591,440.648 193.924,437.648 195,434.5C 195.173,439.974 194.007,445.14 191.5,450C 190.893,462.827 193.393,463.661 199,452.5C 199.654,451.304 200.154,451.304 200.5,452.5C 198.751,457.005 196.251,461.005 193,464.5C 192.855,468.037 192.022,471.371 190.5,474.5C 189.52,471.914 189.187,469.247 189.5,466.5C 183.696,465.598 178.696,463.098 174.5,459C 178.742,461.236 183.409,462.402 188.5,462.5C 188.497,457.473 188.164,452.473 187.5,447.5C 182.761,446.291 178.761,443.791 175.5,440C 178.809,441.147 182.142,442.647 185.5,444.5C 185.833,443.5 186.167,442.5 186.5,441.5C 183.666,431.502 179.999,421.835 175.5,412.5 Z"/></g>
<g><path style="opacity:1" fill="#f2c101" d="M 688.5,437.5 C 689.117,437.611 689.617,437.944 690,438.5C 693.522,452.045 694.189,465.712 692,479.5C 687.624,491.612 679.958,500.945 669,507.5C 660.049,491.019 660.383,474.685 670,458.5C 675.631,451.035 681.798,444.035 688.5,437.5 Z"/></g>
<g><path style="opacity:1" fill="#5b9dc3" d="M 430.5,447.5 C 430.638,457.175 430.971,466.842 431.5,476.5C 402.657,473.231 373.824,469.898 345,466.5C 341.167,466.667 337.333,466.833 333.5,467C 319.496,469.668 305.496,472.334 291.5,475C 283.5,475.667 275.5,475.667 267.5,475C 264.007,474.835 262.174,473.002 262,469.5C 259.985,461.627 259.152,453.627 259.5,445.5C 269.814,446.506 280.148,446.672 290.5,446C 309.155,441.792 327.988,438.958 347,437.5C 370.6,439.85 394.1,443.016 417.5,447C 421.821,447.499 426.154,447.666 430.5,447.5 Z"/></g>
<g><path style="opacity:1" fill="#5b9dc3" d="M 452.5,476.5 C 451.506,467.014 451.173,457.348 451.5,447.5C 474.35,446.212 497.016,443.379 519.5,439C 542.89,436.854 565.89,438.854 588.5,445C 596.792,446.184 605.125,446.684 613.5,446.5C 612.726,456.251 611.393,465.917 609.5,475.5C 592.224,475.013 575.224,472.513 558.5,468C 545.173,466.095 531.84,466.095 518.5,468C 496.681,472.379 474.681,475.213 452.5,476.5 Z"/></g>
<g><path style="opacity:1" fill="#1b180d" d="M 685.5,460.5 C 686.222,460.918 686.722,461.584 687,462.5C 689.317,475.186 685.484,485.519 675.5,493.5C 674.417,492.635 674.251,491.635 675,490.5C 682.48,481.922 685.98,471.922 685.5,460.5 Z"/></g>
<g><path style="opacity:1" fill="#4b7038" d="M 430.5,483.5 C 423.582,500.466 410.915,507.299 392.5,504C 379.933,501.843 367.267,500.677 354.5,500.5C 344.165,501.118 333.832,501.285 323.5,501C 320.179,498.548 317.679,495.382 316,491.5C 314.991,497.985 317.491,502.485 323.5,505C 334.5,505.333 345.5,505.667 356.5,506C 372.984,509.477 389.651,511.144 406.5,511C 403.124,514.356 399.124,516.69 394.5,518C 385.16,519.334 375.827,520.667 366.5,522C 361.108,523.53 356.108,525.863 351.5,529C 346.677,529.609 342.01,529.276 337.5,528C 341.362,530.93 345.695,532.764 350.5,533.5C 355.682,531.913 360.682,529.746 365.5,527C 380.485,525.049 395.485,523.716 410.5,523C 405.956,524.882 401.956,527.549 398.5,531C 393.5,531.333 388.5,531.667 383.5,532C 377.779,536.721 371.779,541.054 365.5,545C 361.985,545.519 358.652,545.186 355.5,544C 361.544,549.337 368.211,550.004 375.5,546C 379.156,542.837 383.156,540.171 387.5,538C 392.167,537.667 396.833,537.333 401.5,537C 405.095,534.463 408.928,532.297 413,530.5C 412.498,534.673 411.165,538.673 409,542.5C 404.524,548.61 399.691,554.443 394.5,560C 392.004,561.08 389.67,562.414 387.5,564C 391.402,564.738 395.068,564.072 398.5,562C 403.075,556.754 408.242,552.254 414,548.5C 417.031,543.761 420.531,539.428 424.5,535.5C 425.659,539.122 425.825,542.789 425,546.5C 423.539,552.137 422.206,557.804 421,563.5C 418.685,568.233 414.852,570.9 409.5,571.5C 410.337,573.505 411.837,574.505 414,574.5C 417.488,573.673 420.654,572.173 423.5,570C 426.567,565.145 429.067,559.978 431,554.5C 433.004,557.475 434.004,560.808 434,564.5C 436.974,573.799 434.141,580.466 425.5,584.5C 431.992,585.839 436.825,583.506 440,577.5C 441.796,570.147 441.63,562.813 439.5,555.5C 439.295,552.205 440.128,549.205 442,546.5C 445.796,558.22 448.129,570.22 449,582.5C 452.29,588.061 457.123,590.227 463.5,589C 460.577,586.955 457.743,584.788 455,582.5C 454.626,573.038 453.626,563.705 452,554.5C 456.5,559 461,563.5 465.5,568C 469.574,571.226 473.574,571.226 477.5,568C 471.801,567.067 467.301,564.234 464,559.5C 463.595,554.091 461.095,549.925 456.5,547C 467.043,548.603 476.376,552.937 484.5,560C 488.5,560.667 492.5,560.667 496.5,560C 491.129,557.797 486.796,554.297 483.5,549.5C 478.592,548.222 473.926,546.389 469.5,544C 464.641,540.658 461.641,536.158 460.5,530.5C 467.657,531.386 474.324,533.553 480.5,537C 485.5,537.333 490.5,537.667 495.5,538C 500.927,541.764 506.593,545.097 512.5,548C 518.336,549.474 523.336,548.14 527.5,544C 524.348,545.186 521.015,545.519 517.5,545C 511.221,541.054 505.221,536.721 499.5,532C 494.5,531.667 489.5,531.333 484.5,531C 480.016,526.922 475.016,523.589 469.5,521C 479.652,522.228 489.818,523.728 500,525.5C 507.14,524.294 514.306,523.794 521.5,524C 525.255,526.795 529.422,528.628 534,529.5C 538.549,528.984 542.715,527.484 546.5,525C 541.856,525.291 537.189,525.291 532.5,525C 529.446,522.806 526.112,521.139 522.5,520C 511.451,519.88 500.451,519.213 489.5,518C 484.444,516.972 480.11,514.639 476.5,511C 485.258,512.106 494.092,512.939 503,513.5C 512.846,512.665 522.68,511.665 532.5,510.5C 539.492,511.333 546.492,511.5 553.5,511C 562.596,510.243 567.096,505.41 567,496.5C 565.141,501.026 561.974,504.192 557.5,506C 532.174,505.719 506.841,505.719 481.5,506C 467.786,503.771 458.452,496.271 453.5,483.5C 477.993,481.73 502.326,478.563 526.5,474C 536.869,473.233 547.203,473.567 557.5,475C 573.693,478.699 590.026,481.532 606.5,483.5C 594.782,513.049 576.115,537.216 550.5,556C 515.699,580 477.699,597.167 436.5,607.5C 388.803,596.483 346.136,575.649 308.5,545C 288.666,528.015 274.666,507.181 266.5,482.5C 274.84,482.666 283.173,482.5 291.5,482C 303.974,480.409 316.307,478.075 328.5,475C 334.632,474.089 340.799,473.589 347,473.5C 374.784,477.202 402.617,480.535 430.5,483.5 Z"/></g>
<g><path style="opacity:1" fill="#fdfdfd" d="M 183.5,488.5 C 197.003,487.27 207.837,491.936 216,502.5C 221.481,512.838 220.315,522.338 212.5,531C 208.507,531.322 205.174,532.988 202.5,536C 196.679,535.516 191.679,537.183 187.5,541C 182.815,543.084 178.482,542.418 174.5,539C 160.469,528.759 157.636,515.926 166,500.5C 170.805,494.859 176.639,490.859 183.5,488.5 Z"/></g>
<g><path style="opacity:1" fill="#241d17" d="M 687.5,498.5 C 689.567,516.236 685.4,532.236 675,546.5C 665.364,557.137 655.364,567.471 645,577.5C 640.651,582.878 636.818,588.545 633.5,594.5C 629.714,595.893 626.048,597.559 622.5,599.5C 628.841,587.503 636.674,576.503 646,566.5C 649.012,555.801 653.012,545.468 658,535.5C 661.09,527.732 663.257,519.732 664.5,511.5C 665.315,512.429 666.148,513.429 667,514.5C 667.671,513.748 668.504,513.414 669.5,513.5C 669.196,516.522 668.696,519.522 668,522.5C 663.898,533.474 660.231,544.474 657,555.5C 667.32,546.851 674.653,536.185 679,523.5C 680.108,519.914 680.608,516.247 680.5,512.5C 681.319,509.695 681.819,506.695 682,503.5C 684.276,502.238 686.109,500.571 687.5,498.5 Z"/></g>
<g><path style="opacity:1" fill="#eebd02" d="M 680.5,512.5 C 680.608,516.247 680.108,519.914 679,523.5C 674.653,536.185 667.32,546.851 657,555.5C 660.231,544.474 663.898,533.474 668,522.5C 668.696,519.522 669.196,516.522 669.5,513.5C 673.1,511.08 676.6,508.414 680,505.5C 680.497,507.81 680.663,510.143 680.5,512.5 Z"/></g>
<g><path style="opacity:0.757" fill="#757678" d="M 133.5,546.5 C 132.833,549.167 131.167,550.833 128.5,551.5C 129.833,549.5 131.5,547.833 133.5,546.5 Z"/></g>
<g><path style="opacity:0.239" fill="#abacad" d="M 765.5,557.5 C 766.675,557.281 767.675,557.614 768.5,558.5C 768.376,559.107 768.043,559.44 767.5,559.5C 766.833,558.833 766.167,558.167 765.5,557.5 Z"/></g>
<g><path style="opacity:0.404" fill="#a1a2a3" d="M 117.5,563.5 C 119.027,563.427 120.027,564.094 120.5,565.5C 118.973,565.573 117.973,564.906 117.5,563.5 Z"/></g>
<g><path style="opacity:0.427" fill="#9d9e9f" d="M 130.5,571.5 C 132.027,571.427 133.027,572.094 133.5,573.5C 131.973,573.573 130.973,572.906 130.5,571.5 Z"/></g>
<g><path style="opacity:1" fill="#edf2ed" d="M 232.5,567.5 C 240.434,577.268 249.267,586.268 259,594.5C 260.283,589.343 260.95,584.01 261,578.5C 262.963,585.006 263.963,591.673 264,598.5C 268.333,601.5 272.667,604.5 277,607.5C 279.401,601.773 280.734,595.773 281,589.5C 283.158,595.917 282.991,602.25 280.5,608.5C 282.417,611.583 285.084,613.75 288.5,615C 284.249,614.811 280.082,613.977 276,612.5C 271.187,613.453 266.354,613.62 261.5,613C 264.833,611.833 268.167,610.667 271.5,609.5C 268.54,607.01 265.54,604.51 262.5,602C 255.009,602.351 248.009,600.684 241.5,597C 246.375,598.205 251.375,598.539 256.5,598C 246.737,589.087 238.737,578.921 232.5,567.5 Z"/></g>
<g><path style="opacity:0.404" fill="#a1a2a3" d="M 164.5,592.5 C 166.027,592.427 167.027,593.094 167.5,594.5C 165.973,594.573 164.973,593.906 164.5,592.5 Z"/></g>
<g><path style="opacity:0.427" fill="#9d9e9f" d="M 177.5,600.5 C 179.027,600.427 180.027,601.094 180.5,602.5C 178.973,602.573 177.973,601.906 177.5,600.5 Z"/></g>
<g><path style="opacity:0.404" fill="#a1a2a3" d="M 211.5,621.5 C 213.027,621.427 214.027,622.094 214.5,623.5C 212.973,623.573 211.973,622.906 211.5,621.5 Z"/></g>
<g><path style="opacity:1" fill="#22201e" d="M 824.5,672.5 C 825.275,677.797 825.608,683.13 825.5,688.5C 822.069,698.118 816.403,706.284 808.5,713C 796.176,721.83 783.509,730.164 770.5,738C 774.358,740.358 777.358,743.525 779.5,747.5C 774.95,749.546 771.117,752.546 768,756.5C 764.667,762.5 761.333,768.5 758,774.5C 752.706,781.365 745.873,783.698 737.5,781.5C 735.485,780.076 733.152,779.41 730.5,779.5C 730.167,779.5 729.833,779.5 729.5,779.5C 729.027,778.094 728.027,777.427 726.5,777.5C 721.614,774.794 717.114,771.461 713,767.5C 641.732,830.389 558.232,863.556 462.5,867C 392.214,871.152 324.881,859.152 260.5,831C 225.405,814.542 193.572,793.375 165,767.5C 156.992,776.514 146.992,781.514 135,782.5C 128.596,782.465 123.596,779.798 120,774.5C 116.667,768.5 113.333,762.5 110,756.5C 106.883,752.546 103.05,749.546 98.5,747.5C 100.642,743.525 103.642,740.358 107.5,738C 90.4991,728.916 74.9991,717.75 61,704.5C 45.0393,683.526 48.8727,667.359 72.5,656C 91.8333,646 111.167,636 130.5,626C 143.818,622.662 154.651,626.496 163,637.5C 173.719,651.219 184.052,665.219 194,679.5C 234.904,726.895 285.738,759.062 346.5,776C 447.827,802.433 542.16,787.1 629.5,730C 649.575,715.26 667.742,698.426 684,679.5C 695.411,662.521 707.911,646.354 721.5,631C 728.23,625.536 735.897,623.536 744.5,625C 768.115,636.474 791.449,648.474 814.5,661C 819.104,663.768 822.438,667.601 824.5,672.5 Z"/></g>
<g><path style="opacity:1" fill="#f7c300" d="M 135.5,629.5 C 145.791,629.73 153.957,634.063 160,642.5C 174.355,663.193 189.855,683.026 206.5,702C 263.801,755.681 331.801,786.014 410.5,793C 493.652,798.938 569.319,778.271 637.5,731C 657.314,715.852 675.147,698.685 691,679.5C 701.412,663.853 712.912,649.02 725.5,635C 732.194,629.08 739.527,628.08 747.5,632C 764.658,640.745 781.658,649.745 798.5,659C 795.37,661.128 792.537,663.628 790,666.5C 779.56,684.935 767.56,702.269 754,718.5C 729.582,746.596 702.415,771.429 672.5,793C 612.827,833.559 546.827,856.226 474.5,861C 319.272,871.95 195.438,815.45 103,691.5C 97.7484,683.332 92.7484,674.999 88,666.5C 85.4634,663.628 82.6301,661.128 79.5,659C 98.1016,648.868 116.768,639.034 135.5,629.5 Z"/></g>
<g><path style="opacity:0.427" fill="#9d9e9f" d="M 224.5,629.5 C 226.027,629.427 227.027,630.094 227.5,631.5C 225.973,631.573 224.973,630.906 224.5,629.5 Z"/></g>
<g><path style="opacity:0.443" fill="#999a9c" d="M 237.5,637.5 C 239.027,637.427 240.027,638.094 240.5,639.5C 238.973,639.573 237.973,638.906 237.5,637.5 Z"/></g>
<g><path style="opacity:1" fill="#f0f4f0" d="M 360.5,635.5 C 365.118,639.831 367.952,645.164 369,651.5C 372.5,652.776 375.667,654.609 378.5,657C 374.548,656.566 370.548,656.566 366.5,657C 362.398,661.549 357.398,664.215 351.5,665C 355.595,662.741 359.262,659.907 362.5,656.5C 355.184,653.73 348.184,654.23 341.5,658C 338.166,658.781 334.833,659.114 331.5,659C 335.719,657.891 339.719,656.225 343.5,654C 330.597,651.144 318.597,646.144 307.5,639C 319.014,643.778 331.014,647.278 343.5,649.5C 342.497,644.862 340.997,640.529 339,636.5C 343.321,640.309 346.154,644.975 347.5,650.5C 353.477,651.165 359.477,651.498 365.5,651.5C 365.66,649.801 365.494,648.134 365,646.5C 363.487,642.812 361.987,639.145 360.5,635.5 Z"/></g>
<g><path style="opacity:0.404" fill="#a1a2a3" d="M 258.5,650.5 C 260.027,650.427 261.027,651.094 261.5,652.5C 259.973,652.573 258.973,651.906 258.5,650.5 Z"/></g>
<g><path style="opacity:0.427" fill="#9d9e9f" d="M 271.5,658.5 C 273.027,658.427 274.027,659.094 274.5,660.5C 272.973,660.573 271.973,659.906 271.5,658.5 Z"/></g>
<g><path style="opacity:1" fill="#df6412" d="M 71.5,662.5 C 76.7486,662.875 80.9153,665.208 84,669.5C 104.765,704.788 130.599,736.122 161.5,763.5C 158.759,765.953 155.925,768.286 153,770.5C 149.69,763.184 144.857,757.018 138.5,752C 121.343,739.918 103.676,728.585 85.5,718C 72.817,710.32 63.317,699.82 57,686.5C 55.5945,680.465 56.9279,675.132 61,670.5C 64.4004,667.586 67.9004,664.92 71.5,662.5 Z"/></g>
<g><path style="opacity:1" fill="#ecc10f" d="M 376.5,662.5 C 382.914,663.727 388.247,666.894 392.5,672C 386.04,671.065 380.04,668.732 374.5,665C 375.381,664.292 376.047,663.458 376.5,662.5 Z"/></g>
<g><path style="opacity:1" fill="#df6412" d="M 802.5,662.5 C 821.196,668.223 825.696,679.556 816,696.5C 811.167,702.667 805.667,708.167 799.5,713C 779.159,725.502 759.159,738.502 739.5,752C 733.143,757.018 728.31,763.184 725,770.5C 722.075,768.286 719.241,765.953 716.5,763.5C 747.401,736.122 773.235,704.788 794,669.5C 796.441,666.546 799.275,664.213 802.5,662.5 Z"/></g>
<g><path style="opacity:0.443" fill="#9a9b9c" d="M 284.5,666.5 C 286.027,666.427 287.027,667.094 287.5,668.5C 285.973,668.573 284.973,667.906 284.5,666.5 Z"/></g>
<g><path style="opacity:1" fill="#db2d1c" d="M 151.5,669.5 C 154.354,670.973 156.688,673.14 158.5,676C 153.833,680 149.167,684 144.5,688C 153.147,688.915 161.814,689.582 170.5,690C 172.31,692.644 174.31,695.144 176.5,697.5C 168.836,697.779 161.17,698.112 153.5,698.5C 150.498,707.839 147.498,717.172 144.5,726.5C 141.994,723.826 139.661,720.992 137.5,718C 140.34,710.981 142.673,703.814 144.5,696.5C 141.111,696.368 137.777,696.201 134.5,696C 131.5,698.5 128.5,701 125.5,703.5C 123.393,701.47 121.393,699.303 119.5,697C 130.653,688.343 141.32,679.176 151.5,669.5 Z"/></g>
<g><path style="opacity:1" fill="#db2c1c" d="M 719.5,678.5 C 733.278,677.306 743.112,682.973 749,695.5C 750.25,713.915 741.75,722.748 723.5,722C 710.452,717.312 704.286,708.146 705,694.5C 707.626,687.046 712.46,681.712 719.5,678.5 Z"/></g>
<g><path style="opacity:0.404" fill="#a1a2a3" d="M 305.5,679.5 C 307.027,679.427 308.027,680.094 308.5,681.5C 306.973,681.573 305.973,680.906 305.5,679.5 Z"/></g>
<g><path style="opacity:0.804" fill="#747576" d="M 824.5,672.5 C 826.006,675.356 826.672,678.523 826.5,682C 826.496,684.361 826.163,686.527 825.5,688.5C 825.608,683.13 825.275,677.797 824.5,672.5 Z"/></g>
<g><path style="opacity:1" fill="#f8c300" d="M 720.5,686.5 C 731.55,686.553 738.55,691.886 741.5,702.5C 739.706,712.07 734.039,715.57 724.5,713C 716.19,709.038 712.69,702.538 714,693.5C 715.694,690.642 717.861,688.309 720.5,686.5 Z"/></g>
<g><path style="opacity:0.42" fill="#9e9fa0" d="M 318.5,687.5 C 320.027,687.427 321.027,688.094 321.5,689.5C 319.973,689.573 318.973,688.906 318.5,687.5 Z"/></g>
<g><path style="opacity:0.443" fill="#9a9b9c" d="M 331.5,695.5 C 333.027,695.427 334.027,696.094 334.5,697.5C 332.973,697.573 331.973,696.906 331.5,695.5 Z"/></g>
<g><path style="opacity:0.404" fill="#a1a2a3" d="M 352.5,708.5 C 354.027,708.427 355.027,709.094 355.5,710.5C 353.973,710.573 352.973,709.906 352.5,708.5 Z"/></g>
<g><path style="opacity:1" fill="#db2c1c" d="M 688.5,709.5 C 690.479,710.812 692.145,712.479 693.5,714.5C 691.183,717.317 688.683,719.984 686,722.5C 685.333,723.5 685.333,724.5 686,725.5C 694.25,733.079 701.75,741.245 708.5,750C 707.171,752.509 705.171,754.342 702.5,755.5C 694.678,747.51 687.011,739.344 679.5,731C 678.5,730.333 677.5,730.333 676.5,731C 674,733.5 671.5,736 669,738.5C 667.108,736.946 665.608,735.112 664.5,733C 672.374,724.959 680.374,717.126 688.5,709.5 Z"/></g>
<g><path style="opacity:1" fill="#db2e1c" d="M 181.5,714.5 C 194.281,713.307 203.114,718.64 208,730.5C 209.03,744.594 202.864,754.094 189.5,759C 176.9,759.944 168.4,754.444 164,742.5C 163.315,732.363 167.148,724.196 175.5,718C 177.727,717.059 179.727,715.892 181.5,714.5 Z"/></g>
<g><path style="opacity:0.42" fill="#9e9fa0" d="M 365.5,716.5 C 367.027,716.427 368.027,717.094 368.5,718.5C 366.973,718.573 365.973,717.906 365.5,716.5 Z"/></g>
<g><path style="opacity:1" fill="#f8c400" d="M 185.5,722.5 C 196.351,722.554 200.851,727.887 199,738.5C 195.385,747.386 188.885,751.219 179.5,750C 172.06,745.377 170.56,739.211 175,731.5C 178.103,727.886 181.603,724.886 185.5,722.5 Z"/></g>
<g><path style="opacity:0.443" fill="#9a9b9c" d="M 378.5,724.5 C 380.027,724.427 381.027,725.094 381.5,726.5C 379.973,726.573 378.973,725.906 378.5,724.5 Z"/></g>
<g><path style="opacity:0.396" fill="#a2a3a4" d="M 399.5,737.5 C 401.027,737.427 402.027,738.094 402.5,739.5C 400.973,739.573 399.973,738.906 399.5,737.5 Z"/></g>
<g><path style="opacity:1" fill="#dd5d12" d="M 111.5,741.5 C 112.873,741.343 114.207,741.51 115.5,742C 124.447,747.947 133.114,754.28 141.5,761C 143.333,763.5 145.167,766 147,768.5C 147.808,770.579 147.641,772.579 146.5,774.5C 137.984,778.239 130.484,776.906 124,770.5C 121.255,764.675 118.255,759.008 115,753.5C 112.463,750.628 109.63,748.128 106.5,746C 108.063,744.264 109.73,742.764 111.5,741.5 Z"/></g>
<g><path style="opacity:1" fill="#dd5d12" d="M 762.5,741.5 C 766.286,741.393 769.286,742.893 771.5,746C 768.37,748.128 765.537,750.628 763,753.5C 759.745,759.008 756.745,764.675 754,770.5C 747.516,776.906 740.016,778.239 731.5,774.5C 730.359,772.579 730.192,770.579 731,768.5C 732.667,766.167 734.333,763.833 736,761.5C 744.633,754.448 753.466,747.782 762.5,741.5 Z"/></g>
<g><path style="opacity:1" fill="#db2d1c" d="M 224.5,741.5 C 234.165,747.669 243.498,754.336 252.5,761.5C 251.396,763.389 250.063,765.055 248.5,766.5C 245.696,764.862 243.029,763.029 240.5,761C 239.5,760.333 238.5,760.333 237.5,761C 230.995,770.33 224.328,779.497 217.5,788.5C 215.032,787.197 212.699,785.697 210.5,784C 217.172,774.316 223.839,764.65 230.5,755C 227.198,752.342 223.865,749.675 220.5,747C 221.965,745.226 223.298,743.392 224.5,741.5 Z"/></g>
<g><path style="opacity:1" fill="#db2d1c" d="M 647.5,745.5 C 656.31,744.475 661.644,748.308 663.5,757C 662.714,760.239 661.381,763.239 659.5,766C 667.133,767.6 674.466,770.1 681.5,773.5C 678.737,775.629 675.904,777.629 673,779.5C 667.909,777.47 662.742,775.636 657.5,774C 654.366,773.21 651.366,773.543 648.5,775C 647.483,776.049 647.316,777.216 648,778.5C 651.045,782.756 654.212,786.923 657.5,791C 655.323,792.515 653.156,794.015 651,795.5C 641.615,784.932 633.115,773.599 625.5,761.5C 632.543,755.657 639.876,750.324 647.5,745.5 Z"/></g>
<g><path style="opacity:0.42" fill="#9e9fa0" d="M 412.5,745.5 C 414.027,745.427 415.027,746.094 415.5,747.5C 413.973,747.573 412.973,746.906 412.5,745.5 Z"/></g>
<g><path style="opacity:0.443" fill="#9a9b9c" d="M 425.5,753.5 C 427.027,753.427 428.027,754.094 428.5,755.5C 426.973,755.573 425.973,754.906 425.5,753.5 Z"/></g>
<g><path style="opacity:1" fill="#f8c200" d="M 647.5,753.5 C 652.813,753.644 654.979,756.31 654,761.5C 650.701,764.978 647.034,767.978 643,770.5C 640.47,767.937 638.303,765.103 636.5,762C 640.235,759.147 643.902,756.313 647.5,753.5 Z"/></g>
<g><path style="opacity:1" fill="#db2c1c" d="M 610.5,768.5 C 611.496,768.414 612.329,768.748 613,769.5C 613.707,771.081 614.54,772.581 615.5,774C 609.325,777.588 602.991,780.922 596.5,784C 595.813,787.516 596.813,790.683 599.5,793.5C 604.992,790.921 610.325,788.088 615.5,785C 618.958,784.324 620.958,785.824 621.5,789.5C 621.291,790.086 620.957,790.586 620.5,791C 614.342,793.912 608.342,797.079 602.5,800.5C 604.587,803.673 606.421,807.006 608,810.5C 615,806.833 622,803.167 629,799.5C 630.419,801.336 631.586,803.336 632.5,805.5C 623.379,811.145 613.879,816.145 604,820.5C 597.052,808.108 590.219,795.608 583.5,783C 592.562,778.138 601.562,773.305 610.5,768.5 Z"/></g>
<g><path style="opacity:1" fill="#db2d1c" d="M 270.5,771.5 C 276.863,771.65 279.863,774.817 279.5,781C 278.497,794.537 277.163,808.037 275.5,821.5C 272.921,820.294 270.421,818.961 268,817.5C 267.909,813.747 267.742,810.08 267.5,806.5C 262.728,804.03 257.894,801.697 253,799.5C 250.333,801.5 247.667,803.5 245,805.5C 242.278,804.556 239.778,803.223 237.5,801.5C 248.546,791.45 259.546,781.45 270.5,771.5 Z"/></g>
<g><path style="opacity:0.427" fill="#a4a5a5" d="M 726.5,777.5 C 728.027,777.427 729.027,778.094 729.5,779.5C 727.973,779.573 726.973,778.906 726.5,777.5 Z"/></g>
<g><path style="opacity:0.62" fill="#828283" d="M 730.5,779.5 C 733.152,779.41 735.485,780.076 737.5,781.5C 734.848,781.59 732.515,780.924 730.5,779.5 Z"/></g>
<g><path style="opacity:1" fill="#f8c001" d="M 269.5,783.5 C 270.44,788.399 270.107,793.399 268.5,798.5C 265.339,797.087 262.339,795.42 259.5,793.5C 262.548,789.785 265.881,786.452 269.5,783.5 Z"/></g>
<g><path style="opacity:1" fill="#db2c1c" d="M 569.5,786.5 C 570.552,786.351 571.552,786.517 572.5,787C 569.039,793.422 565.706,799.922 562.5,806.5C 570.274,813.56 578.274,820.394 586.5,827C 583.129,828.068 579.796,829.235 576.5,830.5C 570.5,825.5 564.5,820.5 558.5,815.5C 553.595,821.669 553.261,828.169 557.5,835C 555.349,837.383 552.683,838.383 549.5,838C 545.176,825.027 540.842,812.027 536.5,799C 538.651,796.617 541.317,795.617 544.5,796C 546.595,801.451 548.595,806.951 550.5,812.5C 554.268,805.297 557.768,797.964 561,790.5C 563.876,789.052 566.709,787.719 569.5,786.5 Z"/></g>
<g><path style="opacity:1" fill="#db301c" d="M 331.5,795.5 C 335.86,796.007 340.193,796.673 344.5,797.5C 345.09,807.49 345.59,817.49 346,827.5C 350.5,819 355,810.5 359.5,802C 363.947,802.194 368.28,803.194 372.5,805C 368.988,818.707 365.988,832.541 363.5,846.5C 360.482,846.296 357.482,845.963 354.5,845.5C 356.87,835.146 359.037,824.812 361,814.5C 356.588,823.657 351.922,832.657 347,841.5C 343.905,842.395 340.738,842.395 337.5,841.5C 337.667,830.162 337.5,818.828 337,807.5C 334.617,817.805 332.45,828.138 330.5,838.5C 328.143,838.663 325.81,838.497 323.5,838C 322.903,836.938 322.57,835.772 322.5,834.5C 325.353,821.426 328.353,808.426 331.5,795.5 Z"/></g>
<g><path style="opacity:1" fill="#db2e1c" d="M 499.5,803.5 C 513.001,801.326 521.835,806.66 526,819.5C 529.108,839.392 520.608,848.892 500.5,848C 491.823,845.321 486.657,839.488 485,830.5C 482.556,817.378 487.389,808.378 499.5,803.5 Z"/></g>
<g><path style="opacity:1" fill="#db2d1c" d="M 398.5,806.5 C 418.537,804.705 427.703,813.705 426,833.5C 421.036,849.732 410.536,854.898 394.5,849C 387.048,844.261 383.714,837.427 384.5,828.5C 384.639,818.209 389.306,810.876 398.5,806.5 Z"/></g>
<g><path style="opacity:1" fill="#db2f1c" d="M 457.5,808.5 C 460.5,808.5 463.5,808.5 466.5,808.5C 466.401,817.515 466.734,826.515 467.5,835.5C 467.669,849.158 461.002,854.658 447.5,852C 442.144,849.125 439.477,844.625 439.5,838.5C 441.92,838.708 444.253,838.374 446.5,837.5C 447.906,839.566 449.24,841.732 450.5,844C 453.347,844.944 455.847,844.444 458,842.5C 458.241,831.167 458.074,819.833 457.5,808.5 Z"/></g>
<g><path style="opacity:1" fill="#f8c400" d="M 500.5,811.5 C 508.886,809.44 514.386,812.44 517,820.5C 517.667,824.5 517.667,828.5 517,832.5C 514.426,839.148 509.593,841.648 502.5,840C 495.227,835.136 492.394,828.303 494,819.5C 495.305,816.039 497.471,813.372 500.5,811.5 Z"/></g>
<g><path style="opacity:1" fill="#f8c300" d="M 400.5,814.5 C 412.771,812.938 418.271,818.272 417,830.5C 415.587,842.119 409.421,845.952 398.5,842C 393.854,836.689 392.354,830.523 394,823.5C 395.211,819.721 397.377,816.721 400.5,814.5 Z"/></g>
</svg>
